# xmcd CD database file
# Copyright (C) 1995-1998 Ti Kan
#
# Track frame offsets:
#	150
#	9490
#	21337
#	30177
#	38812
#	44912
#	55140
#	65432
#	76547
#	86500
#	95995
#	107402
#	119057
#	130417
#	139445
#	147675
#	153512
#	162850
#	172720
#	184550
#
# Disc length: 2605 seconds
#
# Revision: 1
# Processed by: cddbd v1.4b42PL0 Copyright (c) Steve Scherf et al.
# Submitted via: CDex 1.30Release
#
DISCID=0f0a2b14
DTITLE=Johhny Cash and The Tennessee Two - The Complete Original Sun Singles (
DTITLE=Disc 2)
DYEAR=1999
DGENRE=Country
TTITLE0=Luther Played The Boogie
TTITLE1=Thanks A Lot
TTITLE2=Katy Too
TTITLE3=I Forgot To Remember To Forget
TTITLE4=You Tell Me
TTITLE5=Goodbye Little Darlin'
TTITLE6=Straight A's In Love
TTITLE7=I Love You Because
TTITLE8=The Story Of A Broken Heart
TTITLE9=Down The Stree To 301
TTITLE10=Mean Eyed Cat
TTITLE11=Port Of lonely Hearts
TTITLE12=Oh Lonesome me
TTITLE13=Life Goes On
TTITLE14=Sugartime
TTITLE15=My Treasure
TTITLE16=Blue Train
TTITLE17=Born To Lose
TTITLE18=Wide Open Road
TTITLE19=Belshazah
EXTD=YEAR: 1999 ID3G:   2
EXTT0=
EXTT1=
EXTT2=
EXTT3=
EXTT4=
EXTT5=
EXTT6=
EXTT7=
EXTT8=
EXTT9=
EXTT10=
EXTT11=
EXTT12=
EXTT13=
EXTT14=
EXTT15=
EXTT16=
EXTT17=
EXTT18=
EXTT19=
PLAYORDER=
